{"title":"Transcendence 2014 HDRIP X264 AC3-TiTAN","uid":10466641,"size":1300539029,"categoryP":"video","categoryS":"movies","magnet":"?xt=urn:btih:49c5cf5131ad7473ed7c1e344a3b709de7ead332&amp;dn=Transcendence+2014+HDRIP+X264+AC3-TiTAN&amp;tr=udp%3A%2F%2Ftracker.openbittorrent.com%3A80&amp;tr=udp%3A%2F%2Fopen.demonii.com%3A1337&amp;tr=udp%3A%2F%2Ftracker.coppersurfer.tk%3A6969&amp;tr=udp%3A%2F%2Fexodus.desync.com%3A6969","seeders":3,"leechers":0,"uploader":"HeroMaster","files":-1,"time":1404207413,"description":":::::::::::: TiTAN PRESENTS ::::::::::::\n\n\n:::: Transcendence 2014 HDRIP X264 AC3 ::::\n\n\n::Information::\n\n\nTranscendence 2014\n\n &lt;a href=&quot;\nhttp://www.imdb.com/title/tt2209764/&quot; rel=&quot;nofollow&quot; target=&quot;_NEW&quot;&gt;\nhttp://www.imdb.com/title/tt2209764/&lt;/a&gt;\n\n\nSource: Itunes\n\n\nGeneral\nFormat                                   : Matroska\nFormat version                           : Version 2\nFile size                                : 1.21 GiB\nDuration                                 : 1h 59mn\nOverall bit rate mode                    : Variable\nOverall bit rate                         : 1 454 Kbps\nEncoded date                             : UTC 2014-07-01 06:04:46\n\n\nVideo\nID                                       : 1\nFormat                                   : AVC\nFormat/Info                              : Advanced Video Codec\nFormat profile                           : &lt;a class=&quot;__cf_email__&quot; href=&quot;/cdn-cgi/l/email-protection&quot; data-cfemail=&quot;abe3c2ccc3ebe79f859a&quot;&gt;[email&amp;#160;protected]&lt;/a&gt;&lt;script cf-hash='f9e31' type=&quot;text/javascript&quot;&gt;\n/* &lt;![CDATA[ */!function(){try{var t=&quot;currentScript&quot;in document?document.currentScript:function(){for(var t=document.getElementsByTagName(&quot;script&quot;),e=t.length;e--;)if(t[e].getAttribute(&quot;cf-hash&quot;))return t[e]}();if(t&amp;&amp;t.previousSibling){var e,r,n,i,c=t.previousSibling,a=c.getAttribute(&quot;data-cfemail&quot;);if(a){for(e=&quot;&quot;,r=parseInt(a.substr(0,2),16),n=2;a.length-n;n+=2)i=parseInt(a.substr(n,2),16)^r,e+=String.fromCharCode(i);e=document.createTextNode(e),c.parentNode.replaceChild(e,c)}}}catch(u){}}();/* ]]&gt; */&lt;/script&gt;\nFormat settings, CABAC                   : Yes\nFormat settings, ReFrames                : 3 frames\nCodec ID                                 : V_MPEG4/ISO/AVC\nDuration                                 : 1h 59mn\nBit rate mode                            : Variable\nBit rate                                 : 1 041 Kbps\nMaximum bit rate                         : 40.0 Mbps\nWidth                                    : 720 pixels\nHeight                                   : 304 pixels\nDisplay aspect ratio                     : 2.35:1\nFrame rate mode                          : Constant\nFrame rate                               : 23.976 fps\nColor space                              : YUV\nChroma subsampling                       : 4:2:0\nBit depth                                : 8 bits\nScan type                                : Progressive\nBits/(Pixel*Frame)                       : 0.198\nStream size                              : 888 MiB (72%)\nDefault                                  : Yes\nForced                                   : No\nColor primaries                          : BT.709\nTransfer characteristics                 : BT.709\nMatrix coefficients                      : BT.709\n\nAudio\nID                                       : 2\nFormat                                   : AC-3\nFormat/Info                              : Audio Coding 3\nMode extension                           : CM (complete main)\nFormat settings, Endianness              : Big\nCodec ID                                 : A_AC3\nDuration                                 : 1h 59mn\nBit rate mode                            : Constant\nBit rate                                 : 384 Kbps\nChannel(s)                               : 6 channels\nChannel positions                        : Front: L C R, Side: L R, LFE\nSampling rate                            : 48.0 KHz\nBit depth                                : 16 bits\nCompression mode                         : Lossy\nStream size                              : 328 MiB (26%)\nLanguage                                 : English\nDefault                                  : Yes\nForced                                   : No\n\n\n::Greetz and Respect::\n\n\nALL CREDIT Goes to TiTAN for Encoding and ABG for Distribution.\n\n\n::Poster::\n\n &lt;a href=&quot;\nhttp://i.imgur.com/Nrq2TR8.jpg&quot; rel=&quot;nofollow&quot; target=&quot;_NEW&quot;&gt;\nhttp://i.imgur.com/Nrq2TR8.jpg&lt;/a&gt;\n\n\n::Screenshots::\n\n &lt;a href=&quot;\nhttp://i.imgur.com/BZGj4Pb.jpg&quot; rel=&quot;nofollow&quot; target=&quot;_NEW&quot;&gt;\nhttp://i.imgur.com/BZGj4Pb.jpg&lt;/a&gt;\n\n\nSEED AND ENJOY!","torrent":{"xt":"urn:btih:49c5cf5131ad7473ed7c1e344a3b709de7ead332","amp;dn":"Transcendence+2014+HDRIP+X264+AC3-TiTAN","amp;tr":["udp%3A%2F%2Ftracker.openbittorrent.com%3A80","udp%3A%2F%2Fopen.demonii.com%3A1337","udp%3A%2F%2Ftracker.coppersurfer.tk%3A6969","udp%3A%2F%2Fexodus.desync.com%3A6969"],"infoHash":"49c5cf5131ad7473ed7c1e344a3b709de7ead332","infoHashBuffer":{"type":"Buffer","data":[73,197,207,81,49,173,116,115,237,124,30,52,74,59,112,157,231,234,211,50]},"announce":[],"urlList":[]}}